<?xml version="1.0" encoding="UTF-8"?>
<svg width="26px" height="30px" viewBox="0 0 26 30" version="1.1" xmlns="http://www.w3.org/2000/svg" xmlns:xlink="http://www.w3.org/1999/xlink">
    <!-- Generator: Sketch 41.2 (35397) - http://www.bohemiancoding.com/sketch -->
    <title>PDF icon</title>
    <desc>Created with Sketch.</desc>
    <defs></defs>
    <g id="NC-Individual-done" stroke="none" stroke-width="1" fill="none" fill-rule="evenodd">
        <g transform="translate(-210.000000, -482.000000)" id="PDF-icon" fill="#227DAE">
            <path d="M234.848959,488.361615 L229.567709,483.138394 C228.941406,482.518974 227.688802,482 226.791667,482 L211.625,482 C210.727865,482 210,482.719867 210,483.607145 L210,510.392891 C210,511.280169 210.727865,512.000036 211.625,512.000036 L234.375001,512.000036 C235.272135,512.000036 236,511.280169 236,510.392891 L236,491.107154 C236,490.219876 235.475261,488.981035 234.848959,488.361615 Z M227.333334,484.276788 C227.621094,484.377235 227.908855,484.527905 228.027344,484.645092 L233.325521,489.885054 C233.444011,490.002242 233.596354,490.28684 233.697917,490.571439 L227.333334,490.571439 L227.333334,484.276788 Z M233.833334,509.857176 L212.166667,509.857176 L212.166667,484.14286 L225.166667,484.14286 L225.166667,491.107154 C225.166667,491.994431 225.894532,492.714298 226.791667,492.714298 L233.833334,492.714298 L233.833334,509.857176 Z M225.132813,499.929709 C224.134114,499.126136 223.253907,497.703144 222.661458,495.945329 C222.864583,494.790194 222.881511,493.785728 222.898438,492.731039 L222.898438,492.228807 C222.898438,492.178583 222.898438,492.145101 222.881511,492.094878 C222.915365,492.061396 222.932292,492.011173 222.949219,491.960949 C223.050781,491.425234 223,491.05693 222.796875,490.822555 C222.661458,490.655144 222.458333,490.571439 222.204427,490.571439 L222.1875,490.571439 L221.832032,490.571439 C221.49349,490.571439 221.239584,490.822555 221.121094,491.241082 C220.816406,492.345994 220.985677,494.220997 221.527344,496.045776 C221.121094,497.452027 220.528646,498.925243 219.766927,500.431941 C219.089844,501.78797 218.480469,502.876141 217.955729,503.729936 C217.955729,503.713195 217.938802,503.679713 217.921875,503.662972 C217.837239,503.529043 217.667968,503.47882 217.532553,503.562526 C215.433593,504.650697 214.519531,505.939761 214.35026,506.709851 C214.299479,507.044673 214.367188,507.228825 214.451823,507.31253 C214.485677,507.346012 214.502604,507.379494 214.553386,507.396236 L214.959636,507.597129 C215.11198,507.680834 215.264323,507.714316 215.433593,507.714316 C216.449219,507.714316 217.786458,506.274582 219.529948,503.32815 C221.341146,502.70873 223.812501,502.189756 226.165365,501.93864 C227.58724,502.675248 229.229167,503.160739 230.312501,503.160739 C231.209636,503.160739 231.463542,502.825918 231.514323,502.524578 L231.514323,502.507837 C231.53125,502.491096 231.548177,502.457614 231.565104,502.440872 C231.751302,502.039086 231.64974,501.737747 231.53125,501.570336 C231.108073,500.883951 229.669271,500.750022 228.535156,500.750022 C227.925782,500.750022 227.265625,500.783504 226.554687,500.86721 C226.029949,500.56587 225.55599,500.264531 225.132813,499.929709 Z M215.382813,506.810297 C215.636718,506.2411 216.432292,505.136188 217.701823,504.165205 C216.61849,505.856055 215.890625,506.575922 215.382813,506.810297 Z M222.119791,491.408493 C222.119791,491.391752 222.136719,491.375011 222.136719,491.341529 C222.238281,491.458717 222.339844,491.642869 222.356771,491.944208 C222.373698,491.97769 222.373698,492.011173 222.390625,492.027914 C222.356771,492.078137 222.339844,492.111619 222.322917,492.161842 C222.289062,492.362735 222.238281,492.597111 222.204427,492.881709 C222.170573,493.099343 222.136719,493.35046 222.085937,493.618317 C221.950521,492.680816 221.950521,491.877244 222.119791,491.408493 Z M220.020833,502.474355 C220.274739,502.022345 220.528646,501.553595 220.782552,501.084844 C221.391928,499.896227 221.865886,498.808056 222.1875,497.786849 C222.763021,499.008949 223.507813,500.013414 224.337239,500.733281 C224.489583,500.86721 224.658854,500.984398 224.828125,501.118326 C223.169271,501.419666 221.510417,501.888416 220.020833,502.474355 Z M230.955729,502.206497 C230.972656,502.223238 230.989583,502.239979 230.989583,502.25672 C230.921875,502.273462 230.837239,502.273462 230.684896,502.273462 C230.177084,502.273462 229.415365,502.106051 228.585937,501.804711 C230.43099,501.804711 230.871094,502.122792 230.955729,502.206497 Z"></path>
        </g>
    </g>
</svg>